<svg id="Laag_1" xmlns="http://www.w3.org/2000/svg" version="1.1" viewBox="85 95 120 120">
  <defs>
    <style>
      .st3{fill:#f5a0b1}.st4{fill:#cf1042}
    </style>
  </defs>
  <path class="st3" d="M93.31 105.22c5.84-2.55 15.14-5.68 26.78-5.72 5.66-.02 10.62.69 14.66 1.59 1.28 5.83 1.6 10.85 1.59 14.66-.02 8.61-.05 18.84-6.99 25.51-3.1 2.98-6.66 4.36-9.26 5.06a69 69 0 0 1-16.25 1.93c-5.77 0-10.75-.73-14.66-1.59-.9-4.05-1.61-9-1.59-14.66.04-11.65 3.17-20.94 5.72-26.78"/>
  <path class="st4" d="M93.31 105.22c5.84-2.55 15.14-5.68 26.78-5.72 5.48-.02 10.3.65 14.28 1.51-4.17.47-18.44 2.61-30.53 14.75-12.23 12.28-14.24 26.77-14.66 30.91-.9-4.05-1.61-9-1.59-14.66.04-11.65 3.17-20.94 5.72-26.78Z"/>
  <path class="st3" d="M183.87 195.78c-5.84 2.55-15.14 5.68-26.78 5.72-5.66.02-10.62-.69-14.66-1.59a67.5 67.5 0 0 1-1.59-14.66c.02-8.61.05-18.84 6.99-25.51 3.1-2.98 6.66-4.36 9.26-5.06 4.21-1.02 9.75-1.93 16.25-1.93 5.77 0 10.75.73 14.66 1.59.9 4.05 1.61 9 1.59 14.66-.04 11.65-3.17 20.94-5.72 26.78"/>
  <path class="st4" d="M183.87 195.78c-5.84 2.55-15.14 5.68-26.78 5.72-5.48.02-10.3-.65-14.28-1.51 4.17-.47 18.44-2.61 30.53-14.75 12.23-12.28 14.24-26.77 14.66-30.91.9 4.05 1.61 9 1.59 14.66-.04 11.65-3.17 20.94-5.72 26.78Z"/>
  <path class="st3" d="M183.87 105.22c-5.84-2.55-15.14-5.68-26.78-5.72-5.66-.02-10.62.69-14.66 1.59a67.5 67.5 0 0 0-1.59 14.66c.02 8.61.05 18.84 6.99 25.51 3.1 2.98 6.66 4.36 9.26 5.06 4.21 1.02 9.75 1.93 16.25 1.93 5.77 0 10.75-.73 14.66-1.59.9-4.05 1.61-9 1.59-14.66-.04-11.65-3.17-20.94-5.72-26.78"/>
  <path class="st4" d="M183.87 105.22c-5.84-2.55-15.14-5.68-26.78-5.72-5.48-.02-10.3.65-14.28 1.51 4.17.47 18.44 2.61 30.53 14.75 12.23 12.28 14.24 26.77 14.66 30.91.9-4.05 1.61-9 1.59-14.66-.04-11.65-3.17-20.94-5.72-26.78Z"/>
  <path style="fill:none" d="M87.59 99.5h102v102h-102z"/>
  <path class="st3" d="M93.31 195.78c5.84 2.55 15.14 5.68 26.78 5.72 5.66.02 10.62-.69 14.66-1.59 1.28-5.83 1.6-10.85 1.59-14.66-.02-8.61-.05-18.84-6.99-25.51-3.1-2.98-6.66-4.36-9.26-5.06a69 69 0 0 0-16.25-1.93c-5.77 0-10.75.73-14.66 1.59-.9 4.05-1.61 9-1.59 14.66.04 11.65 3.17 20.94 5.72 26.78"/>
  <path class="st4" d="M93.31 195.78c5.84 2.55 15.14 5.68 26.78 5.72 5.48.02 10.3-.65 14.28-1.51-4.17-.47-18.44-2.61-30.53-14.75-12.23-12.28-14.24-26.77-14.66-30.91-.9 4.05-1.61 9-1.59 14.66.04 11.65 3.17 20.94 5.72 26.78Z"/>
</svg>
