<?xml version="1.0" encoding="UTF-8"?>
<svg id="Laag_1" xmlns="http://www.w3.org/2000/svg" version="1.1" viewBox="0 0 1253.56 301">
  <!-- Generator: Adobe Illustrator 29.0.0, SVG Export Plug-In . SVG Version: 2.1.0 Build 186)  -->
  <defs>
    <style>
      .st0, .st1 {
        fill: none;
      }

      .st1 {
        stroke: lime;
        stroke-miterlimit: 10;
      }

      .st2 {
        fill: #1a1d21;
      }

      .st3 {
        fill: #f5a0b1;
      }

      .st4 {
        fill: #cf1042;
      }
    </style>
  </defs>
  <g>
    <path class="st1" d="M103.84,99.5"/>
    <path class="st1" d="M103.84,148.25"/>
    <g>
      <path class="st3" d="M93.31,105.22c5.84-2.55,15.14-5.68,26.78-5.72,5.66-.02,10.62.69,14.66,1.59,1.28,5.83,1.6,10.85,1.59,14.66-.02,8.61-.05,18.84-6.99,25.51-3.1,2.98-6.66,4.36-9.26,5.06-4.21,1.02-9.75,1.93-16.25,1.93-5.77,0-10.75-.73-14.66-1.59-.9-4.05-1.61-9-1.59-14.66.04-11.65,3.17-20.94,5.72-26.78Z"/>
      <path class="st4" d="M93.31,105.22c5.84-2.55,15.14-5.68,26.78-5.72,5.48-.02,10.3.65,14.28,1.51-4.17.47-18.44,2.61-30.53,14.75-12.23,12.28-14.24,26.77-14.66,30.91-.9-4.05-1.61-9-1.59-14.66.04-11.65,3.17-20.94,5.72-26.78Z"/>
    </g>
    <g>
      <path class="st3" d="M183.87,195.78c-5.84,2.55-15.14,5.68-26.78,5.72-5.66.02-10.62-.69-14.66-1.59-1.28-5.83-1.6-10.85-1.59-14.66.02-8.61.05-18.84,6.99-25.51,3.1-2.98,6.66-4.36,9.26-5.06,4.21-1.02,9.75-1.93,16.25-1.93,5.77,0,10.75.73,14.66,1.59.9,4.05,1.61,9,1.59,14.66-.04,11.65-3.17,20.94-5.72,26.78Z"/>
      <path class="st4" d="M183.87,195.78c-5.84,2.55-15.14,5.68-26.78,5.72-5.48.02-10.3-.65-14.28-1.51,4.17-.47,18.44-2.61,30.53-14.75,12.23-12.28,14.24-26.77,14.66-30.91.9,4.05,1.61,9,1.59,14.66-.04,11.65-3.17,20.94-5.72,26.78Z"/>
    </g>
    <g>
      <path class="st3" d="M183.87,105.22c-5.84-2.55-15.14-5.68-26.78-5.72-5.66-.02-10.62.69-14.66,1.59-1.28,5.83-1.6,10.85-1.59,14.66.02,8.61.05,18.84,6.99,25.51,3.1,2.98,6.66,4.36,9.26,5.06,4.21,1.02,9.75,1.93,16.25,1.93,5.77,0,10.75-.73,14.66-1.59.9-4.05,1.61-9,1.59-14.66-.04-11.65-3.17-20.94-5.72-26.78Z"/>
      <path class="st4" d="M183.87,105.22c-5.84-2.55-15.14-5.68-26.78-5.72-5.48-.02-10.3.65-14.28,1.51,4.17.47,18.44,2.61,30.53,14.75,12.23,12.28,14.24,26.77,14.66,30.91.9-4.05,1.61-9,1.59-14.66-.04-11.65-3.17-20.94-5.72-26.78Z"/>
    </g>
    <rect class="st0" x="87.59" y="99.5" width="102" height="102"/>
    <g>
      <path class="st3" d="M93.31,195.78c5.84,2.55,15.14,5.68,26.78,5.72,5.66.02,10.62-.69,14.66-1.59,1.28-5.83,1.6-10.85,1.59-14.66-.02-8.61-.05-18.84-6.99-25.51-3.1-2.98-6.66-4.36-9.26-5.06-4.21-1.02-9.75-1.93-16.25-1.93-5.77,0-10.75.73-14.66,1.59-.9,4.05-1.61,9-1.59,14.66.04,11.65,3.17,20.94,5.72,26.78Z"/>
      <path class="st4" d="M93.31,195.78c5.84,2.55,15.14,5.68,26.78,5.72,5.48.02,10.3-.65,14.28-1.51-4.17-.47-18.44-2.61-30.53-14.75-12.23-12.28-14.24-26.77-14.66-30.91-.9,4.05-1.61,9-1.59,14.66.04,11.65,3.17,20.94,5.72,26.78Z"/>
    </g>
  </g>
  <g>
    <path class="st2" d="M269.92,129.27c-5.05,0-8.96,1.9-11.73,5.69-2.77,3.8-4.15,9.08-4.15,15.86,0,14.11,5.29,21.16,15.88,21.16,4.44,0,9.82-1.11,16.14-3.33v11.25c-5.19,2.16-10.99,3.25-17.4,3.25-9.2,0-16.24-2.79-21.12-8.37-4.88-5.58-7.31-13.59-7.31-24.04,0-6.58,1.2-12.34,3.59-17.29,2.39-4.95,5.83-8.74,10.32-11.38,4.48-2.64,9.74-3.96,15.77-3.96s12.32,1.49,18.52,4.46l-4.33,10.9c-2.37-1.13-4.75-2.1-7.14-2.94-2.4-.83-4.75-1.25-7.05-1.25Z"/>
    <path class="st2" d="M342.44,158c0,7.88-2.08,14.04-6.23,18.48-4.15,4.44-9.94,6.66-17.35,6.66-4.65,0-8.74-1.02-12.29-3.05-3.55-2.03-6.27-4.95-8.18-8.76s-2.86-8.25-2.86-13.33c0-7.9,2.06-14.05,6.19-18.43,4.12-4.38,9.92-6.58,17.4-6.58,4.64,0,8.74,1.01,12.29,3.03,3.55,2.02,6.27,4.92,8.18,8.7,1.9,3.78,2.86,8.21,2.86,13.28ZM308.99,158c0,4.79.79,8.41,2.36,10.86,1.57,2.45,4.13,3.68,7.68,3.68s6.05-1.22,7.59-3.66c1.54-2.44,2.32-6.06,2.32-10.88s-.78-8.38-2.34-10.77c-1.56-2.39-4.11-3.59-7.66-3.59s-6.06,1.19-7.62,3.57-2.34,5.98-2.34,10.8Z"/>
    <path class="st2" d="M398.01,182.27h-13.2v-28.26c0-3.49-.62-6.11-1.86-7.85-1.24-1.74-3.22-2.62-5.93-2.62-3.69,0-6.36,1.23-8.01,3.7s-2.47,6.56-2.47,12.27v22.76h-13.2v-48.38h10.08l1.77,6.19h.74c1.47-2.34,3.5-4.1,6.08-5.3,2.58-1.2,5.52-1.8,8.81-1.8,5.63,0,9.89,1.52,12.81,4.57,2.91,3.04,4.37,7.44,4.37,13.18v31.55Z"/>
    <path class="st2" d="M456.25,182.27h-13.2v-28.26c0-3.49-.62-6.11-1.86-7.85-1.24-1.74-3.22-2.62-5.93-2.62-3.69,0-6.36,1.23-8.01,3.7s-2.47,6.56-2.47,12.27v22.76h-13.2v-48.38h10.08l1.77,6.19h.74c1.47-2.34,3.5-4.1,6.08-5.3,2.58-1.2,5.52-1.8,8.81-1.8,5.63,0,9.89,1.52,12.81,4.57,2.91,3.04,4.37,7.44,4.37,13.18v31.55Z"/>
    <path class="st2" d="M491.74,183.14c-7.79,0-13.88-2.15-18.26-6.45-4.39-4.3-6.58-10.39-6.58-18.26s2.03-14.37,6.08-18.8c4.05-4.43,9.66-6.64,16.81-6.64s12.16,1.95,15.97,5.84c3.81,3.89,5.71,9.28,5.71,16.14v6.4h-31.2c.14,3.75,1.25,6.68,3.33,8.78,2.08,2.11,4.99,3.16,8.74,3.16,2.91,0,5.67-.3,8.27-.91s5.31-1.57,8.14-2.9v10.21c-2.31,1.16-4.78,2.01-7.4,2.57-2.63.56-5.83.84-9.61.84ZM489.87,142.38c-2.8,0-4.99.89-6.58,2.66-1.59,1.77-2.5,4.29-2.73,7.55h18.52c-.06-3.26-.91-5.78-2.55-7.55s-3.87-2.66-6.66-2.66Z"/>
    <path class="st2" d="M541.85,183.14c-15.06,0-22.59-8.27-22.59-24.8,0-8.22,2.05-14.5,6.14-18.85,4.1-4.34,9.97-6.51,17.61-6.51,5.6,0,10.62,1.1,15.06,3.29l-3.89,10.21c-2.08-.83-4.01-1.52-5.8-2.06-1.79-.53-3.58-.8-5.37-.8-6.87,0-10.3,4.88-10.3,14.63s3.43,14.19,10.3,14.19c2.54,0,4.89-.34,7.05-1.02,2.16-.68,4.33-1.74,6.49-3.18v11.29c-2.14,1.36-4.29,2.29-6.47,2.81-2.18.52-4.93.78-8.24.78Z"/>
    <path class="st2" d="M588.15,172.62c2.31,0,5.08-.5,8.31-1.51v9.82c-3.29,1.47-7.33,2.21-12.12,2.21-5.28,0-9.12-1.33-11.53-4-2.41-2.67-3.61-6.67-3.61-12.01v-23.32h-6.32v-5.58l7.27-4.41,3.81-10.21h8.44v10.3h13.54v9.91h-13.54v23.32c0,1.88.53,3.26,1.58,4.15,1.05.9,2.44,1.34,4.18,1.34Z"/>
    <path class="st2" d="M605.67,121.39c0-4.3,2.39-6.45,7.18-6.45s7.18,2.15,7.18,6.45c0,2.05-.6,3.64-1.8,4.78-1.2,1.14-2.99,1.71-5.39,1.71-4.79,0-7.18-2.16-7.18-6.49ZM619.43,182.27h-13.2v-48.38h13.2v48.38Z"/>
    <path class="st2" d="M677.94,182.27h-13.2v-28.26c0-3.49-.62-6.11-1.86-7.85-1.24-1.74-3.22-2.62-5.93-2.62-3.69,0-6.36,1.23-8.01,3.7s-2.47,6.56-2.47,12.27v22.76h-13.2v-48.38h10.08l1.77,6.19h.74c1.47-2.34,3.5-4.1,6.08-5.3,2.58-1.2,5.52-1.8,8.81-1.8,5.63,0,9.89,1.52,12.81,4.57,2.91,3.04,4.37,7.44,4.37,13.18v31.55Z"/>
    <path class="st2" d="M733.63,133.9v6.71l-7.57,1.95c1.38,2.16,2.08,4.59,2.08,7.27,0,5.19-1.81,9.24-5.43,12.14-3.62,2.9-8.65,4.35-15.08,4.35l-2.38-.13-1.95-.22c-1.36,1.04-2.03,2.19-2.03,3.46,0,1.9,2.42,2.86,7.27,2.86h8.22c5.31,0,9.35,1.14,12.14,3.42,2.78,2.28,4.18,5.63,4.18,10.04,0,5.65-2.36,10.04-7.08,13.15-4.72,3.12-11.49,4.67-20.32,4.67-6.75,0-11.91-1.17-15.47-3.53-3.56-2.35-5.34-5.65-5.34-9.89,0-2.91.91-5.35,2.73-7.31,1.82-1.96,4.48-3.36,8.01-4.2-1.36-.57-2.54-1.52-3.55-2.83-1.01-1.31-1.51-2.7-1.51-4.18,0-1.85.53-3.38,1.6-4.61,1.07-1.22,2.61-2.43,4.63-3.61-2.54-1.09-4.55-2.86-6.04-5.28-1.49-2.42-2.23-5.28-2.23-8.57,0-5.28,1.72-9.36,5.15-12.25,3.43-2.88,8.34-4.33,14.71-4.33,1.36,0,2.96.12,4.82.37,1.86.25,3.05.43,3.57.54h16.88ZM696.29,189.11c0,1.82.87,3.25,2.62,4.28,1.74,1.04,4.19,1.56,7.33,1.56,4.73,0,8.44-.65,11.12-1.95s4.02-3.07,4.02-5.32c0-1.82-.79-3.07-2.38-3.76-1.59-.69-4.04-1.04-7.36-1.04h-6.84c-2.42,0-4.45.57-6.08,1.71-1.63,1.14-2.44,2.65-2.44,4.52ZM701.09,149.73c0,2.63.6,4.7,1.8,6.23,1.2,1.53,3.02,2.29,5.47,2.29s4.3-.76,5.45-2.29c1.15-1.53,1.73-3.6,1.73-6.23,0-5.83-2.4-8.74-7.18-8.74s-7.27,2.91-7.27,8.74Z"/>
    <path class="st2" d="M803,164.71c0,5.71-2.06,10.21-6.17,13.5-4.11,3.29-9.83,4.93-17.16,4.93-6.75,0-12.72-1.27-17.91-3.81v-12.46c4.27,1.9,7.88,3.25,10.84,4.02,2.96.78,5.66,1.17,8.11,1.17,2.94,0,5.2-.56,6.77-1.69,1.57-1.13,2.36-2.8,2.36-5.02,0-1.24-.35-2.34-1.04-3.31-.69-.96-1.71-1.89-3.05-2.79-1.34-.89-4.08-2.32-8.2-4.28-3.87-1.82-6.77-3.56-8.7-5.24-1.93-1.67-3.48-3.62-4.63-5.84-1.15-2.22-1.73-4.82-1.73-7.79,0-5.59,1.9-10,5.69-13.2,3.79-3.2,9.04-4.8,15.73-4.8,3.29,0,6.43.39,9.41,1.17s6.11,1.88,9.37,3.29l-4.33,10.43c-3.38-1.38-6.17-2.35-8.37-2.9-2.21-.55-4.38-.82-6.51-.82-2.54,0-4.49.59-5.84,1.77-1.36,1.18-2.03,2.73-2.03,4.63,0,1.18.27,2.22.82,3.09.55.88,1.42,1.73,2.62,2.55,1.2.82,4.03,2.3,8.5,4.44,5.91,2.83,9.97,5.66,12.16,8.5,2.19,2.84,3.29,6.33,3.29,10.45Z"/>
    <path class="st2" d="M857.39,158c0,7.88-2.08,14.04-6.23,18.48-4.15,4.44-9.94,6.66-17.35,6.66-4.65,0-8.74-1.02-12.29-3.05-3.55-2.03-6.27-4.95-8.18-8.76s-2.86-8.25-2.86-13.33c0-7.9,2.06-14.05,6.19-18.43,4.12-4.38,9.92-6.58,17.4-6.58,4.64,0,8.74,1.01,12.29,3.03,3.55,2.02,6.27,4.92,8.18,8.7,1.9,3.78,2.86,8.21,2.86,13.28ZM823.94,158c0,4.79.79,8.41,2.36,10.86,1.57,2.45,4.13,3.68,7.68,3.68s6.05-1.22,7.59-3.66c1.54-2.44,2.32-6.06,2.32-10.88s-.78-8.38-2.34-10.77c-1.56-2.39-4.11-3.59-7.66-3.59s-6.06,1.19-7.62,3.57-2.34,5.98-2.34,10.8Z"/>
    <path class="st2" d="M881.49,182.27h-13.2v-67.33h13.2v67.33Z"/>
    <path class="st2" d="M929.61,182.27l-1.77-6.19h-.69c-1.41,2.25-3.42,3.99-6.01,5.21-2.6,1.23-5.55,1.84-8.87,1.84-5.68,0-9.97-1.52-12.85-4.57-2.89-3.04-4.33-7.42-4.33-13.13v-31.55h13.2v28.26c0,3.49.62,6.11,1.86,7.85,1.24,1.75,3.22,2.62,5.93,2.62,3.69,0,6.36-1.23,8.01-3.7,1.64-2.47,2.47-6.56,2.47-12.27v-22.76h13.2v48.38h-10.13Z"/>
    <path class="st2" d="M973.97,172.62c2.31,0,5.08-.5,8.31-1.51v9.82c-3.29,1.47-7.33,2.21-12.12,2.21-5.28,0-9.12-1.33-11.53-4-2.41-2.67-3.61-6.67-3.61-12.01v-23.32h-6.32v-5.58l7.27-4.41,3.81-10.21h8.44v10.3h13.54v9.91h-13.54v23.32c0,1.88.53,3.26,1.58,4.15,1.05.9,2.44,1.34,4.18,1.34Z"/>
    <path class="st2" d="M991.49,121.39c0-4.3,2.39-6.45,7.18-6.45s7.18,2.15,7.18,6.45c0,2.05-.6,3.64-1.8,4.78-1.2,1.14-2.99,1.71-5.39,1.71-4.79,0-7.18-2.16-7.18-6.49ZM1005.25,182.27h-13.2v-48.38h13.2v48.38Z"/>
    <path class="st2" d="M1063.07,158c0,7.88-2.08,14.04-6.23,18.48-4.15,4.44-9.94,6.66-17.35,6.66-4.65,0-8.74-1.02-12.29-3.05-3.55-2.03-6.27-4.95-8.18-8.76-1.9-3.81-2.86-8.25-2.86-13.33,0-7.9,2.06-14.05,6.19-18.43,4.12-4.38,9.92-6.58,17.4-6.58,4.64,0,8.74,1.01,12.29,3.03,3.55,2.02,6.27,4.92,8.18,8.7,1.9,3.78,2.86,8.21,2.86,13.28ZM1029.62,158c0,4.79.79,8.41,2.36,10.86,1.57,2.45,4.13,3.68,7.68,3.68s6.05-1.22,7.59-3.66c1.54-2.44,2.32-6.06,2.32-10.88s-.78-8.38-2.34-10.77c-1.56-2.39-4.11-3.59-7.66-3.59s-6.06,1.19-7.62,3.57-2.34,5.98-2.34,10.8Z"/>
    <path class="st2" d="M1118.63,182.27h-13.2v-28.26c0-3.49-.62-6.11-1.86-7.85-1.24-1.74-3.22-2.62-5.93-2.62-3.69,0-6.36,1.23-8.01,3.7s-2.47,6.56-2.47,12.27v22.76h-13.2v-48.38h10.08l1.77,6.19h.74c1.47-2.34,3.5-4.1,6.08-5.3,2.58-1.2,5.52-1.8,8.81-1.8,5.63,0,9.89,1.52,12.81,4.57,2.91,3.04,4.37,7.44,4.37,13.18v31.55Z"/>
    <path class="st2" d="M1165.97,167.91c0,4.96-1.72,8.74-5.17,11.34-3.45,2.6-8.61,3.89-15.47,3.89-3.52,0-6.52-.24-9-.71-2.48-.48-4.8-1.17-6.97-2.1v-10.9c2.45,1.16,5.21,2.12,8.29,2.9,3.07.78,5.78,1.17,8.11,1.17,4.79,0,7.18-1.38,7.18-4.15,0-1.04-.32-1.88-.95-2.53-.64-.65-1.73-1.38-3.29-2.21s-3.63-1.78-6.23-2.88c-3.72-1.56-6.46-3-8.2-4.33-1.75-1.33-3.02-2.85-3.81-4.57-.79-1.72-1.19-3.83-1.19-6.34,0-4.3,1.67-7.62,5-9.97,3.33-2.35,8.05-3.53,14.17-3.53s11.5,1.27,17.01,3.81l-3.98,9.52c-2.42-1.04-4.69-1.89-6.79-2.55-2.11-.66-4.26-1-6.45-1-3.89,0-5.84,1.05-5.84,3.16,0,1.18.63,2.21,1.88,3.07s4,2.15,8.24,3.85c3.78,1.53,6.55,2.96,8.31,4.28,1.76,1.33,3.06,2.86,3.89,4.59.84,1.73,1.25,3.8,1.25,6.19Z"/>
  </g>
  <rect class="st0" x="240.23" y="117.98" width="975.57" height="65.04"/>
</svg>